<svg width="26" height="27" viewBox="0 0 26 27" fill="none" xmlns="http://www.w3.org/2000/svg">
<path d="M16.49 14.5915C16.0547 14.5915 15.2176 16.2154 14.7154 16.2154C14.5815 16.2154 14.4643 16.1652 14.3471 16.0982C13.4096 15.6295 12.5893 15.144 11.8192 14.4074C11.183 13.8047 10.4799 12.9007 10.1116 12.1138C10.0614 12.0301 10.0279 11.9464 10.0279 11.8627C10.0279 11.4777 11.183 10.7578 11.183 10.1217C11.183 9.95424 10.3292 7.67745 10.2121 7.39286C10.0446 6.95759 9.96094 6.82366 9.50893 6.82366C9.2913 6.82366 9.0904 6.77344 8.88951 6.77344C8.53795 6.77344 8.27009 6.90737 8.01897 7.14174C7.2154 7.89509 6.81362 8.68192 6.78013 9.78683V9.92076C6.76339 11.0759 7.33259 12.231 7.96875 13.1685C9.40848 15.2946 10.8984 17.1529 13.2924 18.2411C14.0123 18.5759 15.6696 19.279 16.4732 19.279C17.4275 19.279 18.9844 18.6763 19.3694 17.7388C19.5201 17.3538 19.654 16.885 19.654 16.4665C19.654 16.3996 19.654 16.2991 19.6205 16.2154C19.5033 16.0145 16.7746 14.5915 16.49 14.5915ZM13.0915 23.4643C11.0491 23.4643 9.02344 22.8449 7.31585 21.7232L3.26451 23.0123L4.58705 19.1116C3.28125 17.3203 2.57813 15.1607 2.57813 12.9509C2.57813 7.15848 7.29911 2.4375 13.0915 2.4375C18.8839 2.4375 23.6049 7.15848 23.6049 12.9509C23.6049 18.7433 18.8839 23.4643 13.0915 23.4643ZM13.0915 0.328123C6.12723 0.328123 0.46875 5.98661 0.46875 12.9509C0.46875 15.2444 1.08817 17.5045 2.27679 19.4632L0 26.2433L6.98103 24C8.85603 25.0379 10.9654 25.5737 13.0915 25.5737C20.0558 25.5737 25.7143 19.9152 25.7143 12.9509C25.7143 5.98661 20.0558 0.328123 13.0915 0.328123Z" fill="white"/>
</svg>
