<svg width="29" height="30" viewBox="0 0 29 30" fill="none" xmlns="http://www.w3.org/2000/svg">
<path d="M25.1484 3.45703C24.4121 2.83398 21.4668 0.681641 15.0098 0.681641C15.0098 0.681641 7.36328 0.228516 3.625 3.62695C1.5293 5.72266 0.792969 8.72461 0.736328 12.5195C0.679688 16.2578 0.566406 23.3379 7.36328 25.2637V28.1523C7.36328 28.1523 7.30664 29.3418 8.09961 29.625C9.0625 29.9082 9.57227 29.002 10.4785 28.0391C10.9883 27.4727 11.668 26.7363 12.1777 26.1133C16.8223 26.5098 20.3906 25.6035 20.8438 25.4902C21.75 25.1504 27.0742 24.4707 27.9238 17.4473C28.8301 10.1406 27.5273 5.55273 25.1484 3.45703ZM25.8848 16.8809C25.2051 22.7715 20.8438 23.168 20.0508 23.4512C19.7109 23.5078 16.5957 24.3008 12.6309 24.0742C12.6309 24.0742 9.68555 27.5859 8.7793 28.5488C8.49609 28.832 8.15625 28.832 8.15625 28.209C8.15625 27.8125 8.15625 23.3379 8.15625 23.3379C2.43555 21.752 2.77539 15.748 2.83203 12.6328C2.88867 9.46094 3.45508 6.91211 5.21094 5.15625C8.38281 2.26758 14.8965 2.7207 14.8965 2.7207C20.3906 2.7207 22.9961 4.41992 23.6191 4.92969C25.6582 6.68555 26.6777 10.8203 25.8848 16.8809ZM18.0117 12.3496C17.9551 10.707 17.1055 9.80078 15.5195 9.6875C15.0098 9.6875 14.9531 10.4238 15.4629 10.4238C16.6523 10.5371 17.2188 11.1035 17.332 12.3496C17.332 12.8594 18.0684 12.8027 18.0117 12.3496ZM19.2012 12.9727C19.2012 13.4258 19.9375 13.4824 19.9375 12.9727C19.9941 10.2539 18.2383 7.98828 14.9531 7.76172C14.4434 7.70508 14.3867 8.44141 14.8965 8.49805C17.7285 8.66797 19.2578 10.5938 19.2012 12.9727ZM21.8633 13.709C21.8066 8.78125 18.4648 5.89258 14.2734 5.83594C13.8203 5.83594 13.8203 6.57227 14.2734 6.57227C18.0117 6.62891 21.0703 9.12109 21.127 13.709C21.127 14.2188 21.8633 14.2188 21.8633 13.709ZM21.1836 19.2598C21.4668 18.75 21.4102 18.2969 21.0137 17.957C20.2773 17.2773 19.2578 16.541 18.4082 16.0879C17.7852 15.748 17.1621 15.9746 16.8789 16.3145L16.3691 16.9941C16.0859 17.334 15.5762 17.2773 15.5762 17.2773C11.7812 16.3145 10.7617 12.5195 10.7617 12.5195C10.7617 12.5195 10.7617 12.0098 11.1016 11.7266L11.7812 11.1602C12.1211 10.877 12.291 10.2539 11.9512 9.63086C11.7812 9.29102 11.3848 8.66797 11.1016 8.32812C10.8184 7.875 10.082 7.08203 10.082 7.08203C9.79883 6.62891 9.28906 6.57227 8.7793 6.85547H8.72266C7.64648 7.42188 6.45703 8.61133 6.85352 9.74414C6.85352 9.74414 7.13672 10.7637 8.32617 12.916C8.89258 13.9922 9.51562 14.8418 10.082 15.5781C10.7051 16.3711 11.5547 17.2207 12.4609 17.957C14.2734 19.373 17.0488 20.8457 18.2383 21.1855H18.2949C19.4277 21.582 20.6172 20.3926 21.1836 19.3164V19.2598Z" fill="white"/>
</svg>
