<svg width="290" height="62" viewBox="0 0 290 62" fill="none" xmlns="http://www.w3.org/2000/svg">
<path d="M13.1208 27.8407H0.144775V21.6882H33.368V27.8407H20.3919V60.8401H13.1208V27.8407Z" fill="white"/>
<path d="M70.9853 54.7436V60.8401H41.6213V21.6882H70.2022V27.7847H48.8924V37.9642H67.7972V43.9489H48.8924V54.7436H70.9853Z" fill="white"/>
<path d="M107.504 60.8401L99.5059 49.3742C99.1703 49.4115 98.6669 49.4301 97.9957 49.4301H89.1586V60.8401H81.8875V21.6882H97.9957C101.389 21.6882 104.335 22.2475 106.833 23.3662C109.368 24.4848 111.307 26.0881 112.65 28.1762C113.992 30.2644 114.663 32.744 114.663 35.6151C114.663 38.5608 113.936 41.0964 112.482 43.2218C111.065 45.3472 109.014 46.9319 106.329 47.9759L115.334 60.8401H107.504ZM107.336 35.6151C107.336 33.1168 106.516 31.1965 104.875 29.8542C103.235 28.5118 100.83 27.8407 97.6601 27.8407H89.1586V43.4455H97.6601C100.83 43.4455 103.235 42.7743 104.875 41.432C106.516 40.0523 107.336 38.1134 107.336 35.6151Z" fill="white"/>
<path d="M154.959 54.7436V60.8401H125.595V21.6882H154.176V27.7847H132.866V37.9642H151.771V43.9489H132.866V54.7436H154.959Z" fill="white"/>
<path d="M190.09 60.8401L179.463 45.9624L168.948 60.8401H160.67L175.212 40.8727L161.453 21.6882H169.675L179.686 35.6151L189.586 21.6882H197.473L183.769 40.593L198.479 60.8401H190.09Z" fill="white"/>
<path d="M223.87 61.3994C219.881 61.3994 216.282 60.5418 213.076 58.8266C209.869 57.0741 207.352 54.669 205.525 51.6115C203.698 48.5166 202.784 45.0675 202.784 41.2642C202.784 37.4608 203.698 34.0304 205.525 30.9728C207.352 27.8779 209.869 25.4729 213.076 23.7577C216.282 22.0052 219.881 21.1289 223.87 21.1289C227.86 21.1289 231.458 22.0052 234.665 23.7577C237.872 25.4729 240.389 27.8593 242.216 30.9169C244.043 33.9745 244.957 37.4236 244.957 41.2642C244.957 45.1048 244.043 48.5539 242.216 51.6115C240.389 54.669 237.872 57.0741 234.665 58.8266C231.458 60.5418 227.86 61.3994 223.87 61.3994ZM223.87 55.0233C226.481 55.0233 228.83 54.4453 230.918 53.2894C233.006 52.0962 234.647 50.4556 235.84 48.3674C237.033 46.2421 237.63 43.8743 237.63 41.2642C237.63 38.654 237.033 36.3049 235.84 34.2168C234.647 32.0914 233.006 30.4508 230.918 29.2949C228.83 28.1017 226.481 27.5051 223.87 27.5051C221.26 27.5051 218.911 28.1017 216.823 29.2949C214.735 30.4508 213.094 32.0914 211.901 34.2168C210.708 36.3049 210.111 38.654 210.111 41.2642C210.111 43.8743 210.708 46.2421 211.901 48.3674C213.094 50.4556 214.735 52.0962 216.823 53.2894C218.911 54.4453 221.26 55.0233 223.87 55.0233Z" fill="white"/>
<path d="M290 21.6882L272.941 60.8401H265.782L248.667 21.6882H256.553L269.585 51.8911L282.729 21.6882H290Z" fill="white"/>
<rect x="71.6592" width="138.612" height="6.07949" fill="#FFFF33"/>
</svg>
